<svg viewBox="0 0 162 26" fill="none" xmlns="http://www.w3.org/2000/svg">
<rect x="2.90625" y="-0.00244141" width="20" height="26" rx="6" fill="white"/>
<path opacity="0.3" d="M8.23959 17.0509V17.6642H8.85293L14.8929 11.6242L14.2796 11.0109L8.23959 17.0509Z" fill="#FDD5D0"/>
<path d="M18.7129 9.69089C18.9729 9.43089 18.9729 9.01089 18.7129 8.75089L17.1529 7.19089C17.0196 7.05756 16.8529 6.99756 16.6796 6.99756C16.5063 6.99756 16.3396 7.06423 16.2129 7.19089L14.9929 8.41089L17.4929 10.9109L18.7129 9.69089ZM6.90625 16.4976V18.9976H9.40625L16.7796 11.6242L14.2796 9.12423L6.90625 16.4976ZM8.85292 17.6642H8.23958V17.0509L14.2796 11.0109L14.8929 11.6242L8.85292 17.6642Z" fill="#F87060"/>
<rect x="66.9062" y="-0.00244141" width="20" height="26" rx="6" fill="white"/>
<path opacity="0.3" d="M74.2396 10.9976H79.5729V17.6642H74.2396V10.9976Z" fill="#F87060"/>
<path d="M79.2396 7.66423L78.5729 6.99756H75.2396L74.5729 7.66423H72.2396V8.99756H81.5729V7.66423H79.2396ZM72.9062 17.6642C72.9062 18.3976 73.5062 18.9976 74.2396 18.9976H79.5729C80.3062 18.9976 80.9062 18.3976 80.9062 17.6642V9.66423H72.9062V17.6642ZM74.2396 10.9976H79.5729V17.6642H74.2396V10.9976Z" fill="#F87060"/>
<path d="M51.8285 12.686C48.6396 6.43866 41.1729 6.43866 37.9685 12.686C37.9685 12.686 37.9062 12.8146 37.9062 13.0434C37.9062 13.2149 37.9685 13.315 37.9685 13.315C41.1729 19.5623 48.6396 19.5623 51.8285 13.315C51.8285 13.315 51.8907 13.172 51.9063 13.0005C51.9063 12.8289 51.8285 12.686 51.8285 12.686ZM44.9063 16.503C42.7596 16.503 41.0174 14.9018 41.0174 12.929C41.0174 10.9562 42.7596 9.35503 44.9063 9.35503C47.0529 9.35503 48.7951 10.9562 48.7951 12.929C48.7951 14.9018 47.0529 16.503 44.9063 16.503Z" fill="#F87060"/>
<path d="M44.9062 10.9146C43.6151 10.9146 42.5729 11.8724 42.5729 13.0446C42.5729 14.2169 43.6151 15.1747 44.9062 15.1747C46.1974 15.1747 47.2396 14.2169 47.2396 13.0446C47.2396 11.8724 46.1974 10.9146 44.9062 10.9146Z" fill="#F87060"/>
<path opacity="0.3" d="M134.24 8.33385H139.573V10.3338H134.24V8.33385Z" fill="#F87060"/>
<path d="M140.906 13.3338C141.274 13.3338 141.573 13.0353 141.573 12.6672C141.573 12.299 141.274 12.0005 140.906 12.0005C140.538 12.0005 140.24 12.299 140.24 12.6672C140.24 13.0353 140.538 13.3338 140.906 13.3338Z" fill="#F87060"/>
<path d="M141.573 10.3338H140.906V7.00049H132.906V10.3338H132.24C131.133 10.3338 130.24 11.2272 130.24 12.3338V16.3338H132.906V19.0005H140.906V16.3338H143.573V12.3338C143.573 11.2272 142.68 10.3338 141.573 10.3338ZM134.24 8.33382H139.573V10.3338H134.24V8.33382ZM139.573 17.6672H134.24V15.0005H139.573V17.6672ZM142.24 15.0005H140.906V13.6672H132.906V15.0005H131.573V12.3338C131.573 11.9672 131.873 11.6672 132.24 11.6672H141.573C141.94 11.6672 142.24 11.9672 142.24 12.3338V15.0005Z" fill="#F87060"/>
<path opacity="0.3" d="M132.906 13.6671H140.906V15.0005H142.24V12.3338C142.24 11.9671 141.94 11.6671 141.573 11.6671H132.24C131.873 11.6671 131.573 11.9671 131.573 12.3338V15.0005H132.906V13.6671ZM140.906 12.0005C141.273 12.0005 141.573 12.3005 141.573 12.6671C141.573 13.0338 141.273 13.3338 140.906 13.3338C140.54 13.3338 140.24 13.0338 140.24 12.6671C140.24 12.3005 140.54 12.0005 140.906 12.0005Z" fill="#F87060"/>
<path d="M107.433 14.0273L102.864 10.4651L102.497 10.1781L102.866 10.4664V17.4567H112.923V10.4664L108.352 14.0273C108.22 14.1297 108.059 14.1852 107.892 14.1852C107.726 14.1852 107.564 14.1297 107.433 14.0273Z" fill="#FDD5D0"/>
<path d="M113.478 9.00049H102.335C102.098 9.00049 101.906 9.19229 101.906 9.4297V18.0139C101.906 18.2513 102.098 18.4431 102.335 18.4431H113.478C113.715 18.4431 113.906 18.2513 113.906 18.0139V9.4297C113.906 9.19229 113.715 9.00049 113.478 9.00049ZM112.212 9.96755L107.906 13.3194L103.6 9.96755H112.212ZM112.942 10.4866V17.4774H102.871V10.4866L102.501 10.1983L102.869 10.4853L107.444 14.0477C107.576 14.1501 107.738 14.2057 107.904 14.2057C108.071 14.2057 108.233 14.1501 108.364 14.0477L112.942 10.4866L113.312 10.1983L112.785 9.52091H112.787L113.313 10.1983L112.942 10.4866Z" fill="#F87060"/>
</svg>
