<svg  viewBox="0 0 144 39" fill="none" xmlns="http://www.w3.org/2000/svg">
<path d="M66.25 22C66.1094 21.7422 65.9844 21.3633 65.875 20.8633C65.1484 21.7773 64.1328 22.2344 62.8281 22.2344C61.6328 22.2344 60.6172 21.875 59.7812 21.1562C58.9453 20.4297 58.5273 19.5195 58.5273 18.4258C58.5273 17.0508 59.0352 16.0117 60.0508 15.3086C61.0664 14.6055 62.543 14.2539 64.4805 14.2539H65.6992V13.5859C65.6992 12.4219 65.1953 11.8398 64.1875 11.8398C63.25 11.8398 62.7812 12.3008 62.7812 13.2227H58.832C58.832 11.9961 59.3516 11 60.3906 10.2344C61.4375 9.46875 62.7695 9.08594 64.3867 9.08594C66.0039 9.08594 67.2812 9.48047 68.2188 10.2695C69.1562 11.0586 69.6367 12.1406 69.6602 13.5156V19.1289C69.6758 20.293 69.8555 21.1836 70.1992 21.8008V22H66.25ZM63.7773 19.4219C64.2695 19.4219 64.6758 19.3164 64.9961 19.1055C65.3242 18.8945 65.5586 18.6562 65.6992 18.3906V16.3633H64.5508C63.1758 16.3633 62.4883 16.9805 62.4883 18.2148C62.4883 18.5742 62.6094 18.8672 62.8516 19.0938C63.0938 19.3125 63.4023 19.4219 63.7773 19.4219ZM79.5273 12.8945L78.2266 12.8008C76.9844 12.8008 76.1875 13.1914 75.8359 13.9727V22H71.8867V9.32031H75.5898L75.7188 10.9492C76.3828 9.70703 77.3086 9.08594 78.4961 9.08594C78.918 9.08594 79.2852 9.13281 79.5977 9.22656L79.5273 12.8945ZM85.1172 22H81.1562V9.32031H85.1172V22ZM80.9219 6.05078C80.9219 5.48828 81.125 5.02734 81.5312 4.66797C81.9375 4.30859 82.4648 4.12891 83.1133 4.12891C83.7617 4.12891 84.2891 4.30859 84.6953 4.66797C85.1016 5.02734 85.3047 5.48828 85.3047 6.05078C85.3047 6.61328 85.1016 7.07422 84.6953 7.43359C84.2891 7.79297 83.7617 7.97266 83.1133 7.97266C82.4648 7.97266 81.9375 7.79297 81.5312 7.43359C81.125 7.07422 80.9219 6.61328 80.9219 6.05078ZM92.6172 17.3008L94.6211 9.32031H98.7812L94.6445 22H90.6133L86.4766 9.32031H90.6484L92.6172 17.3008ZM106.914 22C106.773 21.7422 106.648 21.3633 106.539 20.8633C105.812 21.7773 104.797 22.2344 103.492 22.2344C102.297 22.2344 101.281 21.875 100.445 21.1562C99.6094 20.4297 99.1914 19.5195 99.1914 18.4258C99.1914 17.0508 99.6992 16.0117 100.715 15.3086C101.73 14.6055 103.207 14.2539 105.145 14.2539H106.363V13.5859C106.363 12.4219 105.859 11.8398 104.852 11.8398C103.914 11.8398 103.445 12.3008 103.445 13.2227H99.4961C99.4961 11.9961 100.016 11 101.055 10.2344C102.102 9.46875 103.434 9.08594 105.051 9.08594C106.668 9.08594 107.945 9.48047 108.883 10.2695C109.82 11.0586 110.301 12.1406 110.324 13.5156V19.1289C110.34 20.293 110.52 21.1836 110.863 21.8008V22H106.914ZM104.441 19.4219C104.934 19.4219 105.34 19.3164 105.66 19.1055C105.988 18.8945 106.223 18.6562 106.363 18.3906V16.3633H105.215C103.84 16.3633 103.152 16.9805 103.152 18.2148C103.152 18.5742 103.273 18.8672 103.516 19.0938C103.758 19.3125 104.066 19.4219 104.441 19.4219ZM119.664 22C119.523 21.7422 119.398 21.3633 119.289 20.8633C118.562 21.7773 117.547 22.2344 116.242 22.2344C115.047 22.2344 114.031 21.875 113.195 21.1562C112.359 20.4297 111.941 19.5195 111.941 18.4258C111.941 17.0508 112.449 16.0117 113.465 15.3086C114.48 14.6055 115.957 14.2539 117.895 14.2539H119.113V13.5859C119.113 12.4219 118.609 11.8398 117.602 11.8398C116.664 11.8398 116.195 12.3008 116.195 13.2227H112.246C112.246 11.9961 112.766 11 113.805 10.2344C114.852 9.46875 116.184 9.08594 117.801 9.08594C119.418 9.08594 120.695 9.48047 121.633 10.2695C122.57 11.0586 123.051 12.1406 123.074 13.5156V19.1289C123.09 20.293 123.27 21.1836 123.613 21.8008V22H119.664ZM117.191 19.4219C117.684 19.4219 118.09 19.3164 118.41 19.1055C118.738 18.8945 118.973 18.6562 119.113 18.3906V16.3633H117.965C116.59 16.3633 115.902 16.9805 115.902 18.2148C115.902 18.5742 116.023 18.8672 116.266 19.0938C116.508 19.3125 116.816 19.4219 117.191 19.4219Z" fill="#292929"/>
<path d="M88.5039 32.1973C87.5391 31.9199 86.8359 31.5801 86.3945 31.1777C85.957 30.7715 85.7383 30.2715 85.7383 29.6777C85.7383 29.0059 86.0059 28.4512 86.541 28.0137C87.0801 27.5723 87.7793 27.3516 88.6387 27.3516C89.2246 27.3516 89.7461 27.4648 90.2031 27.6914C90.6641 27.918 91.0195 28.2305 91.2695 28.6289C91.5234 29.0273 91.6504 29.4629 91.6504 29.9355H90.5195C90.5195 29.4199 90.3555 29.0156 90.0273 28.7227C89.6992 28.4258 89.2363 28.2773 88.6387 28.2773C88.084 28.2773 87.6504 28.4004 87.3379 28.6465C87.0293 28.8887 86.875 29.2266 86.875 29.6602C86.875 30.0078 87.0215 30.3027 87.3145 30.5449C87.6113 30.7832 88.1133 31.002 88.8203 31.2012C89.5312 31.4004 90.0859 31.6211 90.4844 31.8633C90.8867 32.1016 91.1836 32.3809 91.375 32.7012C91.5703 33.0215 91.668 33.3984 91.668 33.832C91.668 34.5234 91.3984 35.0781 90.8594 35.4961C90.3203 35.9102 89.5996 36.1172 88.6973 36.1172C88.1113 36.1172 87.5645 36.0059 87.0566 35.7832C86.5488 35.5566 86.1562 35.248 85.8789 34.8574C85.6055 34.4668 85.4688 34.0234 85.4688 33.5273H86.5996C86.5996 34.043 86.7891 34.4512 87.168 34.752C87.5508 35.0488 88.0605 35.1973 88.6973 35.1973C89.291 35.1973 89.7461 35.0762 90.0625 34.834C90.3789 34.5918 90.5371 34.2617 90.5371 33.8438C90.5371 33.4258 90.3906 33.1035 90.0977 32.877C89.8047 32.6465 89.2734 32.4199 88.5039 32.1973ZM95.5762 36.1172C94.7168 36.1172 94.0176 35.8359 93.4785 35.2734C92.9395 34.707 92.6699 33.9512 92.6699 33.0059V32.8066C92.6699 32.1777 92.7891 31.6172 93.0273 31.125C93.2695 30.6289 93.6055 30.2422 94.0352 29.9648C94.4688 29.6836 94.9375 29.543 95.4414 29.543C96.2656 29.543 96.9062 29.8145 97.3633 30.3574C97.8203 30.9004 98.0488 31.6777 98.0488 32.6895V33.1406H93.7539C93.7695 33.7656 93.9512 34.2715 94.2988 34.6582C94.6504 35.041 95.0957 35.2324 95.6348 35.2324C96.0176 35.2324 96.3418 35.1543 96.6074 34.998C96.873 34.8418 97.1055 34.6348 97.3047 34.377L97.9668 34.8926C97.4355 35.709 96.6387 36.1172 95.5762 36.1172ZM95.4414 30.4336C95.0039 30.4336 94.6367 30.5938 94.3398 30.9141C94.043 31.2305 93.8594 31.6758 93.7891 32.25H96.9648V32.168C96.9336 31.6172 96.7852 31.1914 96.5195 30.8906C96.2539 30.5859 95.8945 30.4336 95.4414 30.4336ZM102.373 30.6328C102.209 30.6055 102.031 30.5918 101.84 30.5918C101.129 30.5918 100.646 30.8945 100.393 31.5V36H99.3086V29.6602H100.363L100.381 30.3926C100.736 29.8262 101.24 29.543 101.893 29.543C102.104 29.543 102.264 29.5703 102.373 29.625V30.6328ZM105.572 34.5293L107.143 29.6602H108.25L105.977 36H105.15L102.854 29.6602H103.961L105.572 34.5293ZM110.471 36H109.387V29.6602H110.471V36ZM109.299 27.9785C109.299 27.8027 109.352 27.6543 109.457 27.5332C109.566 27.4121 109.727 27.3516 109.938 27.3516C110.148 27.3516 110.309 27.4121 110.418 27.5332C110.527 27.6543 110.582 27.8027 110.582 27.9785C110.582 28.1543 110.527 28.3008 110.418 28.418C110.309 28.5352 110.148 28.5938 109.938 28.5938C109.727 28.5938 109.566 28.5352 109.457 28.418C109.352 28.3008 109.299 28.1543 109.299 27.9785ZM114.754 35.2324C115.141 35.2324 115.479 35.1152 115.768 34.8809C116.057 34.6465 116.217 34.3535 116.248 34.002H117.273C117.254 34.3652 117.129 34.7109 116.898 35.0391C116.668 35.3672 116.359 35.6289 115.973 35.8242C115.59 36.0195 115.184 36.1172 114.754 36.1172C113.891 36.1172 113.203 35.8301 112.691 35.2559C112.184 34.6777 111.93 33.8887 111.93 32.8887V32.707C111.93 32.0898 112.043 31.541 112.27 31.0605C112.496 30.5801 112.82 30.207 113.242 29.9414C113.668 29.6758 114.17 29.543 114.748 29.543C115.459 29.543 116.049 29.7559 116.518 30.1816C116.99 30.6074 117.242 31.1602 117.273 31.8398H116.248C116.217 31.4297 116.061 31.0938 115.779 30.832C115.502 30.5664 115.158 30.4336 114.748 30.4336C114.197 30.4336 113.77 30.6328 113.465 31.0312C113.164 31.4258 113.014 31.998 113.014 32.748V32.9531C113.014 33.6836 113.164 34.2461 113.465 34.6406C113.766 35.0352 114.195 35.2324 114.754 35.2324ZM121.123 36.1172C120.264 36.1172 119.564 35.8359 119.025 35.2734C118.486 34.707 118.217 33.9512 118.217 33.0059V32.8066C118.217 32.1777 118.336 31.6172 118.574 31.125C118.816 30.6289 119.152 30.2422 119.582 29.9648C120.016 29.6836 120.484 29.543 120.988 29.543C121.812 29.543 122.453 29.8145 122.91 30.3574C123.367 30.9004 123.596 31.6777 123.596 32.6895V33.1406H119.301C119.316 33.7656 119.498 34.2715 119.846 34.6582C120.197 35.041 120.643 35.2324 121.182 35.2324C121.564 35.2324 121.889 35.1543 122.154 34.998C122.42 34.8418 122.652 34.6348 122.852 34.377L123.514 34.8926C122.982 35.709 122.186 36.1172 121.123 36.1172ZM120.988 30.4336C120.551 30.4336 120.184 30.5938 119.887 30.9141C119.59 31.2305 119.406 31.6758 119.336 32.25H122.512V32.168C122.48 31.6172 122.332 31.1914 122.066 30.8906C121.801 30.5859 121.441 30.4336 120.988 30.4336ZM128.951 29.6602V36.7324C128.951 37.9512 128.398 38.5605 127.293 38.5605C127.055 38.5605 126.834 38.5254 126.631 38.4551V37.5879C126.756 37.6191 126.92 37.6348 127.123 37.6348C127.365 37.6348 127.549 37.5684 127.674 37.4355C127.803 37.3066 127.867 37.0801 127.867 36.7559V29.6602H128.951ZM127.756 27.9785C127.756 27.8066 127.809 27.6602 127.914 27.5391C128.023 27.4141 128.182 27.3516 128.389 27.3516C128.6 27.3516 128.76 27.4121 128.869 27.5332C128.979 27.6543 129.033 27.8027 129.033 27.9785C129.033 28.1543 128.979 28.3008 128.869 28.418C128.76 28.5352 128.6 28.5938 128.389 28.5938C128.178 28.5938 128.02 28.5352 127.914 28.418C127.809 28.3008 127.756 28.1543 127.756 27.9785ZM130.416 32.7715C130.416 32.1504 130.537 31.5918 130.779 31.0957C131.025 30.5996 131.365 30.2168 131.799 29.9473C132.236 29.6777 132.734 29.543 133.293 29.543C134.156 29.543 134.854 29.8418 135.385 30.4395C135.92 31.0371 136.188 31.832 136.188 32.8242V32.9004C136.188 33.5176 136.068 34.0723 135.83 34.5645C135.596 35.0527 135.258 35.4336 134.816 35.707C134.379 35.9805 133.875 36.1172 133.305 36.1172C132.445 36.1172 131.748 35.8184 131.213 35.2207C130.682 34.623 130.416 33.832 130.416 32.8477V32.7715ZM131.506 32.9004C131.506 33.6035 131.668 34.168 131.992 34.5938C132.32 35.0195 132.758 35.2324 133.305 35.2324C133.855 35.2324 134.293 35.0176 134.617 34.5879C134.941 34.1543 135.104 33.5488 135.104 32.7715C135.104 32.0762 134.938 31.5137 134.605 31.084C134.277 30.6504 133.84 30.4336 133.293 30.4336C132.758 30.4336 132.326 30.6465 131.998 31.0723C131.67 31.498 131.506 32.1074 131.506 32.9004ZM142.914 32.9004C142.914 33.8691 142.691 34.6484 142.246 35.2383C141.801 35.8242 141.203 36.1172 140.453 36.1172C139.652 36.1172 139.033 35.834 138.596 35.2676L138.543 36H137.547V27H138.631V30.3574C139.068 29.8145 139.672 29.543 140.441 29.543C141.211 29.543 141.814 29.834 142.252 30.416C142.693 30.998 142.914 31.7949 142.914 32.8066V32.9004ZM141.83 32.7773C141.83 32.0391 141.688 31.4688 141.402 31.0664C141.117 30.6641 140.707 30.4629 140.172 30.4629C139.457 30.4629 138.943 30.7949 138.631 31.459V34.2012C138.963 34.8652 139.48 35.1973 140.184 35.1973C140.703 35.1973 141.107 34.9961 141.396 34.5938C141.686 34.1914 141.83 33.5859 141.83 32.7773Z" fill="#292929"/>
<circle cx="47" cy="16" r="9" fill="#292929"/>
<path d="M19.2502 23.0386V24.4318H2.75016V23.0386H19.2502ZM6.0465 13.2195L7.34266 14.2045L4.42583 16.421L7.34266 18.6375L6.0465 19.6225L1.8335 16.421L6.0465 13.2195ZM19.2502 18.1625V19.5556H11.0002V18.1625H19.2502ZM19.2502 13.2864V14.6795H11.0002V13.2864H19.2502Z" fill="#292929"/>
<path d="M2.5 9H19.5" stroke="#292929" stroke-width="1.5"/>
</svg>
